<svg version="1.0" xmlns="http://www.w3.org/2000/svg"
 width="512.000000pt" height="512.000000pt" viewBox="0 0 512.000000 512.000000"
 preserveAspectRatio="xMidYMid meet">

<g transform="translate(0.000000,512.000000) scale(0.100000,-0.100000)"
fill="#00B894" stroke="none">
<path d="M2090 5110 c-154 -9 -266 -25 -367 -51 -107 -27 -369 -153 -412 -197
-30 -31 -33 -39 -28 -76 7 -50 53 -96 96 -96 16 0 92 30 168 66 76 36 164 74
195 85 99 33 245 50 503 59 493 15 719 -18 1128 -164 71 -25 138 -46 150 -46
87 0 135 121 72 180 -28 26 -251 108 -425 156 -308 85 -631 110 -1080 84z"/>
<path d="M2100 4680 c-303 -36 -522 -97 -755 -210 -306 -148 -595 -407 -595
-532 0 -57 43 -98 101 -98 40 0 47 4 94 57 161 181 281 274 480 372 250 124
475 181 777 200 402 26 809 -53 1166 -224 199 -96 409 -247 476 -343 49 -72
117 -83 172 -28 65 65 38 134 -107 271 -269 253 -723 450 -1199 521 -123 18
-501 27 -610 14z"/>
<path d="M2170 4240 c-137 -23 -213 -43 -335 -87 -610 -219 -1070 -775 -1169
-1413 -26 -170 -31 -292 -12 -332 36 -75 136 -83 182 -13 11 16 19 64 24 147
10 139 19 198 49 314 131 512 527 937 1031 1107 141 47 228 65 397 79 382 32
760 -65 1022 -263 167 -126 298 -284 507 -614 59 -93 131 -202 161 -241 171
-229 378 -321 442 -197 30 60 2 111 -89 159 -110 58 -151 109 -425 536 -326
508 -688 754 -1212 823 -161 21 -436 19 -573 -5z"/>
<path d="M2329 3829 c-251 -19 -502 -116 -714 -275 -98 -73 -240 -223 -308
-325 -235 -354 -294 -737 -182 -1179 47 -187 49 -365 4 -484 -50 -134 -137
-224 -281 -291 -89 -41 -118 -72 -118 -126 0 -29 7 -45 31 -68 43 -44 88 -42
195 8 159 75 271 184 344 334 91 189 102 394 35 670 -55 222 -64 335 -44 502
23 189 110 404 227 561 178 240 469 412 766 453 223 31 490 -11 681 -106 275
-138 489 -380 595 -672 26 -72 39 -86 225 -245 281 -242 535 -444 566 -450 90
-18 160 104 98 171 -13 14 -109 96 -214 181 -104 86 -251 208 -325 271 -133
112 -135 115 -166 190 -74 183 -170 331 -306 469 -292 298 -686 444 -1109 411z"/>
<path d="M4113 3826 c-40 -18 -67 -68 -59 -110 4 -17 24 -60 45 -96 47 -79
118 -221 156 -313 34 -80 63 -107 116 -107 29 0 47 8 71 29 47 42 44 87 -16
222 -60 135 -160 316 -194 351 -33 34 -77 43 -119 24z"/>
<path d="M2277 3395 c-219 -42 -438 -180 -579 -365 -63 -83 -141 -242 -169
-345 -14 -54 -23 -122 -26 -210 -4 -123 -2 -142 40 -360 65 -333 72 -388 72
-600 0 -150 -4 -203 -17 -253 -26 -94 -64 -166 -118 -224 -59 -65 -128 -107
-267 -164 -119 -48 -142 -70 -143 -127 0 -53 52 -107 101 -107 45 1 211 67
302 121 104 61 223 184 270 280 119 241 122 584 9 1119 -60 288 -48 444 49
630 78 150 187 258 334 331 113 55 190 73 315 72 133 0 218 -20 340 -80 80
-40 109 -61 185 -137 99 -99 142 -170 193 -313 16 -45 44 -107 63 -138 71
-118 279 -331 539 -552 213 -181 443 -363 466 -369 69 -17 134 28 134 93 0 52
-22 80 -138 173 -443 354 -735 629 -818 768 -13 21 -37 77 -54 124 -140 386
-476 632 -880 644 -83 2 -151 -1 -203 -11z"/>
<path d="M2345 2948 c-163 -31 -319 -166 -387 -337 -19 -47 -23 -75 -23 -176
0 -143 13 -191 110 -390 204 -420 595 -844 1294 -1404 148 -118 168 -131 203
-131 30 0 46 7 68 29 66 65 52 113 -61 204 -647 526 -957 831 -1176 1157 -117
173 -213 380 -234 499 -20 109 17 207 105 289 56 52 103 72 186 79 78 6 158
-18 221 -68 51 -40 78 -83 114 -179 112 -304 404 -633 988 -1117 222 -185 262
-214 300 -223 46 -10 91 10 111 49 38 72 20 99 -158 243 -458 370 -772 678
-931 912 -30 44 -76 131 -101 191 -56 132 -83 174 -163 247 -124 115 -289 160
-466 126z"/>
<path d="M2404 2549 c-28 -14 -54 -61 -54 -96 0 -79 91 -276 205 -448 182
-273 437 -520 935 -905 113 -88 229 -178 258 -201 42 -34 60 -42 94 -42 57 0
98 44 98 105 0 37 -6 47 -52 93 -29 27 -154 129 -278 224 -297 231 -439 351
-592 507 -238 242 -347 398 -438 626 -23 59 -50 114 -60 123 -23 21 -88 28
-116 14z"/>
<path d="M682 2105 c-17 -14 -33 -38 -37 -54 -12 -56 35 -227 100 -365 29 -61
62 -86 116 -86 39 0 99 56 99 93 0 14 -18 69 -39 123 -22 55 -47 131 -56 169
-22 90 -33 114 -67 131 -41 21 -83 17 -116 -11z"/>
<path d="M1983 1485 c-44 -19 -66 -56 -60 -102 3 -21 11 -79 18 -128 37 -262
-113 -664 -293 -789 -29 -20 -58 -36 -65 -36 -18 0 -74 -51 -84 -77 -20 -54
22 -125 81 -136 75 -15 232 85 330 211 152 193 243 474 244 747 1 201 -23 283
-91 311 -39 17 -40 17 -80 -1z"/>
<path d="M2465 838 c-169 -63 -281 -286 -324 -645 -13 -109 -2 -152 48 -177
81 -42 161 16 161 118 0 103 67 350 116 427 39 62 71 82 124 74 104 -16 181
-77 308 -242 100 -131 124 -157 164 -172 68 -26 149 47 133 119 -4 16 -27 55
-52 87 -25 32 -61 83 -80 113 -80 123 -222 233 -363 281 -75 25 -191 34 -235
17z"/>
</g>
</svg>
